<?xml version="1.0" standalone="no"?>
<!DOCTYPE svg PUBLIC "-//W3C//DTD SVG 20010904//EN"
 "http://www.w3.org/TR/2001/REC-SVG-20010904/DTD/svg10.dtd">
<svg version="1.0" xmlns="http://www.w3.org/2000/svg"
 width="500.000000pt" height="500.000000pt" viewBox="0 0 500.000000 500.000000"
 preserveAspectRatio="xMidYMid meet">

<g transform="translate(0.000000,500.000000) scale(0.100000,-0.100000)"
fill="#000000" stroke="none">
<path d="M1415 3078 c-11 -6 -23 -15 -26 -21 -4 -5 -4 -69 -1 -142 2 -73 2
-144 -2 -158 -6 -24 -9 -25 -38 -16 -18 5 -62 9 -98 9 -153 0 -256 -108 -279
-290 -22 -172 52 -332 175 -381 16 -6 67 -12 114 -12 69 -1 94 3 129 20 l44
22 29 -24 c48 -40 143 -28 153 19 9 45 15 784 7 834 -17 102 -134 181 -207
140z m107 -35 c17 -15 18 -37 17 -292 -1 -152 -4 -355 -8 -451 l-6 -175 -28
-3 c-32 -4 -55 12 -68 46 l-9 23 -29 -20 c-61 -43 -190 -51 -274 -16 -50 21
-103 87 -117 147 -14 55 -9 181 9 240 7 20 26 58 44 84 61 91 179 127 300 90
41 -12 46 -12 52 3 3 8 6 83 5 166 -1 82 -1 155 -1 162 2 27 82 25 113 -4z
m83 -221 c-3 -3 -11 0 -18 7 -9 10 -8 11 6 5 10 -3 15 -9 12 -12z m-19 -343
c19 -22 19 -22 -3 -10 -13 6 -23 16 -23 21 0 15 5 12 26 -11z m4 -209 c8 -5
11 -10 5 -10 -5 0 -17 5 -25 10 -8 5 -10 10 -5 10 6 0 17 -5 25 -10z m-5 -100
c10 -11 16 -20 13 -20 -3 0 -13 9 -23 20 -10 11 -16 20 -13 20 3 0 13 -9 23
-20z"/>
<path d="M1221 2603 c-107 -56 -147 -241 -71 -326 25 -28 34 -32 99 -35 128
-7 154 18 166 163 8 104 -3 163 -35 187 -38 28 -117 33 -159 11z m42 -43 c3
-11 1 -18 -4 -14 -5 3 -9 12 -9 20 0 20 7 17 13 -6z m96 -41 c39 -14 46 -38
37 -131 -7 -78 -17 -102 -47 -118 -22 -12 -116 -16 -127 -5 -4 4 -8 43 -10 88
-3 93 14 142 58 164 31 16 48 16 89 2z m-169 -69 c0 -5 -2 -10 -4 -10 -3 0 -8
5 -11 10 -3 6 -1 10 4 10 6 0 11 -4 11 -10z m-15 -110 c3 -6 -1 -7 -9 -4 -18
7 -21 14 -7 14 6 0 13 -4 16 -10z"/>
<path d="M4260 2823 c-29 -10 -60 -47 -60 -70 0 -19 90 -162 169 -269 15 -21
21 -39 16 -53 -3 -11 -46 -63 -96 -116 -55 -59 -89 -103 -89 -116 0 -33 81
-109 116 -109 38 0 63 17 155 107 l76 75 64 -77 c95 -115 164 -142 220 -86 48
48 41 68 -69 205 -40 49 -72 93 -72 98 0 5 18 31 39 58 22 27 54 75 71 106 28
48 32 63 28 110 -3 39 -11 61 -29 80 -54 58 -84 55 -131 -14 -52 -76 -131
-173 -140 -170 -4 2 -38 48 -75 103 -39 56 -81 107 -98 116 -36 20 -75 29 -95
22z m46 -21 c5 -4 49 -64 97 -134 48 -70 92 -130 97 -133 13 -8 55 36 147 158
40 53 78 97 84 97 6 0 24 -13 40 -29 25 -26 28 -33 19 -56 -13 -34 -62 -106
-115 -170 -80 -96 -79 -94 -41 -150 19 -28 61 -81 95 -120 33 -38 61 -79 61
-89 0 -29 -29 -56 -60 -56 -30 0 -89 57 -173 168 -27 34 -50 62 -52 62 -3 0
-44 -40 -92 -89 -92 -94 -126 -112 -169 -92 -24 11 -33 44 -14 56 29 18 180
200 180 216 0 11 -43 79 -95 152 -52 72 -95 142 -95 155 0 41 54 76 86 54z"/>
<path d="M2663 2810 c-20 -8 -21 -13 -16 -127 3 -74 -1 -177 -11 -277 -24
-237 -23 -255 17 -294 58 -57 150 -38 180 37 9 22 21 100 27 182 11 151 17
186 33 207 11 14 134 17 157 2 12 -7 15 -36 14 -147 0 -76 -6 -165 -12 -197
-14 -71 -2 -99 56 -123 45 -19 102 -5 126 32 33 49 50 145 50 280 l1 130 -37
72 c-70 135 -142 192 -253 201 -37 2 -83 0 -107 -7 -39 -11 -48 -10 -101 13
-60 27 -87 31 -124 16z m91 -26 c9 -8 16 -24 16 -34 0 -30 15 -31 72 -5 61 29
167 34 222 11 59 -25 105 -74 120 -130 23 -79 29 -191 17 -305 -12 -112 -38
-185 -69 -195 -28 -9 -75 11 -68 29 16 43 27 227 17 317 -15 148 -44 181 -156
180 -71 0 -116 -26 -131 -73 -6 -18 -17 -110 -23 -202 -12 -181 -24 -222 -65
-233 -71 -18 -75 1 -51 271 11 121 15 222 11 278 -4 48 -4 92 -1 97 10 16 72
12 89 -6z m193 -186 c-3 -8 -6 -5 -6 6 -1 11 2 17 5 13 3 -3 4 -12 1 -19z
m-112 -128 c3 -6 -1 -7 -9 -4 -18 7 -21 14 -7 14 6 0 13 -4 16 -10z m435 -36
c0 -2 -9 0 -20 6 -11 6 -20 13 -20 16 0 2 9 0 20 -6 11 -6 20 -13 20 -16z"/>
<path d="M1826 2778 c-30 -47 -46 -323 -26 -461 12 -83 35 -130 93 -189 35
-37 55 -48 99 -58 79 -18 204 -10 254 17 41 21 41 21 72 1 43 -27 99 -21 124
13 18 24 19 32 7 110 -8 55 -10 139 -6 249 4 91 2 182 -3 204 -20 90 -145 160
-196 109 -15 -15 -16 -33 -9 -170 8 -178 0 -275 -25 -306 -16 -19 -28 -22 -94
-22 -47 0 -80 5 -88 13 -9 9 -13 65 -15 203 -3 199 -7 218 -53 267 -43 46
-111 56 -134 20z m97 -19 c12 -17 14 -54 10 -202 -6 -218 0 -254 46 -281 41
-24 154 -33 205 -16 66 22 69 34 70 283 l1 222 41 3 c27 2 45 -2 53 -12 10
-12 14 -84 16 -283 1 -148 6 -280 10 -295 6 -23 3 -29 -18 -39 -34 -15 -75 -4
-88 25 l-11 22 -46 -24 c-42 -21 -57 -23 -148 -20 -127 4 -186 30 -223 98 -22
38 -25 60 -29 174 -4 121 9 311 24 350 9 24 69 21 87 -5z m488 -76 c13 -16 12
-17 -3 -4 -17 13 -22 21 -14 21 2 0 10 -8 17 -17z m-430 -60 c13 -16 12 -17
-3 -4 -10 7 -18 15 -18 17 0 8 8 3 21 -13z m-10 -80 c13 -16 12 -17 -3 -4 -10
7 -18 15 -18 17 0 8 8 3 21 -13z m10 -60 c13 -16 12 -17 -3 -4 -10 7 -18 15
-18 17 0 8 8 3 21 -13z m424 -123 c10 -11 16 -20 13 -20 -3 0 -13 9 -23 20
-10 11 -16 20 -13 20 3 0 13 -9 23 -20z m10 -68 c-3 -3 -11 0 -18 7 -9 10 -8
11 6 5 10 -3 15 -9 12 -12z m-448 -184 c-3 -8 -6 -5 -6 6 -1 11 2 17 5 13 3
-3 4 -12 1 -19z"/>
<path d="M405 2771 c-88 -23 -169 -93 -207 -179 -29 -67 -36 -209 -14 -288 21
-73 65 -139 120 -181 69 -53 117 -66 241 -67 95 -1 117 2 163 23 60 27 102 71
102 107 0 15 -16 41 -39 67 l-39 42 -49 -19 c-58 -22 -207 -32 -245 -17 -21 8
-28 17 -28 38 l0 28 138 0 c128 0 141 2 187 25 65 34 90 76 89 151 -1 96 -77
199 -181 246 -58 27 -181 39 -238 24z m198 -31 c120 -37 182 -141 146 -244
-26 -75 -46 -81 -246 -81 l-176 0 -9 -25 c-5 -13 -6 -38 -2 -54 14 -68 66 -97
186 -104 73 -4 99 -1 159 18 60 19 72 21 80 9 38 -61 -77 -129 -217 -129 -158
0 -258 48 -310 150 -29 57 -31 183 -5 271 19 60 31 81 75 125 84 83 189 104
319 64z m197 -260 c0 -5 -2 -10 -4 -10 -3 0 -8 5 -11 10 -3 6 -1 10 4 10 6 0
11 -4 11 -10z m-29 -57 c13 -16 12 -17 -3 -4 -10 7 -18 15 -18 17 0 8 8 3 21
-13z m-17 -19 c3 -8 2 -12 -4 -9 -6 3 -10 10 -10 16 0 14 7 11 14 -7z m-347
-36 c-3 -8 -6 -5 -6 6 -1 11 2 17 5 13 3 -3 4 -12 1 -19z m50 -10 c-3 -8 -6
-5 -6 6 -1 11 2 17 5 13 3 -3 4 -12 1 -19z m-82 -58 c3 -6 -1 -7 -9 -4 -18 7
-21 14 -7 14 6 0 13 -4 16 -10z m230 -210 c3 -5 1 -10 -4 -10 -6 0 -11 5 -11
10 0 6 2 10 4 10 3 0 8 -4 11 -10z"/>
<path d="M431 2648 c-47 -13 -80 -36 -97 -69 -18 -37 -18 -65 2 -73 28 -11
238 -17 269 -8 26 7 30 14 33 48 7 88 -91 136 -207 102z m196 -94 c2 -7 -3
-19 -12 -28 -13 -12 -36 -16 -100 -16 -92 0 -113 11 -75 42 19 16 37 18 103
16 49 -2 82 -7 84 -14z m-240 -20 c-3 -3 -12 -4 -19 -1 -8 3 -5 6 6 6 11 1 17
-2 13 -5z"/>
<path d="M3665 2769 c-156 -39 -249 -207 -225 -404 17 -140 101 -249 222 -292
81 -28 246 -25 315 6 90 40 119 91 84 148 -11 18 -31 39 -45 49 -24 15 -29 15
-68 -1 -52 -21 -202 -31 -240 -16 -21 8 -28 17 -28 38 l0 28 128 0 c155 1 198
12 246 65 33 37 36 45 36 100 0 104 -78 214 -185 261 -52 23 -182 33 -240 18z
m190 -24 c109 -29 166 -95 168 -195 1 -46 -3 -65 -19 -87 -35 -47 -79 -56
-257 -50 l-157 5 -6 -24 c-10 -39 5 -94 33 -120 51 -47 234 -58 331 -19 41 17
45 17 60 1 15 -15 15 -19 2 -43 -53 -94 -306 -111 -441 -30 -77 46 -103 101
-107 227 -5 121 19 192 87 263 76 80 180 104 306 72z m186 -322 c13 -16 12
-17 -3 -4 -17 13 -22 21 -14 21 2 0 10 -8 17 -17z m-364 -55 c-3 -8 -6 -5 -6
6 -1 11 2 17 5 13 3 -3 4 -12 1 -19z m-46 -65 c13 -16 12 -17 -3 -4 -17 13
-22 21 -14 21 2 0 10 -8 17 -17z"/>
<path d="M3685 2645 c-22 -8 -52 -28 -67 -45 -31 -33 -38 -84 -13 -94 29 -11
220 -18 260 -9 38 8 40 11 43 50 2 31 -2 47 -20 67 -37 44 -128 57 -203 31z
m205 -99 c0 -31 -15 -36 -110 -36 -85 0 -102 10 -74 41 14 16 31 19 101 19 81
0 83 -1 83 -24z"/>
</g>
</svg>
